<svg width="1600" height="1000" viewBox="0 0 1600 1000" xmlns="http://www.w3.org/2000/svg">
  <defs>
    <linearGradient id="sky" x1="0" y1="0" x2="0" y2="1">
      <stop offset="0%" stop-color="#1c2140"/>
      <stop offset="100%" stop-color="#0a1020"/>
    </linearGradient>
    <linearGradient id="mount1" x1="0" y1="0" x2="0" y2="1">
      <stop offset="0%" stop-color="#262d52"/>
      <stop offset="100%" stop-color="#131a2c"/>
    </linearGradient>
    <linearGradient id="mount2" x1="0" y1="0" x2="0" y2="1">
      <stop offset="0%" stop-color="#1e243b"/>
      <stop offset="100%" stop-color="#0d121d"/>
    </linearGradient>
    <filter id="blur"><feGaussianBlur stdDeviation="12"/></filter>
  </defs>

  <rect width="1600" height="1000" fill="url(#sky)"/>
  <circle cx="1180" cy="145" r="62" fill="#f3eeff"/>
  <circle cx="1180" cy="145" r="150" fill="#c89bff" opacity=".18" filter="url(#blur)"/>

  <g opacity=".5">
    <circle cx="90" cy="120" r="2" fill="#fff"/>
    <circle cx="240" cy="80" r="1.8" fill="#fff"/>
    <circle cx="420" cy="150" r="1.8" fill="#fff"/>
    <circle cx="630" cy="95" r="2" fill="#fff"/>
    <circle cx="820" cy="140" r="1.7" fill="#fff"/>
    <circle cx="1020" cy="85" r="2" fill="#fff"/>
    <circle cx="1360" cy="110" r="2" fill="#fff"/>
    <circle cx="1490" cy="180" r="1.6" fill="#fff"/>
  </g>

  <path d="M0 620 L120 540 L240 610 L360 500 L520 640 L670 520 L860 680 L1020 540 L1180 690 L1360 560 L1510 690 L1600 620 L1600 1000 L0 1000 Z" fill="url(#mount1)"/>
  <path d="M0 700 L140 630 L260 700 L400 610 L560 740 L720 620 L900 770 L1080 640 L1260 790 L1420 690 L1600 760 L1600 1000 L0 1000 Z" fill="url(#mount2)"/>

  <rect x="0" y="800" width="1600" height="200" fill="#13181f"/>
  <rect x="0" y="800" width="1600" height="22" fill="#2f392f"/>

  <g>
    <rect x="70" y="760" width="120" height="40" fill="#2f392f"/>
    <rect x="70" y="800" width="120" height="60" fill="#34363e"/>
    <rect x="250" y="720" width="130" height="80" fill="#2f392f"/>
    <rect x="250" y="800" width="130" height="90" fill="#34363e"/>
    <rect x="450" y="750" width="90" height="50" fill="#2f392f"/>
    <rect x="450" y="800" width="90" height="80" fill="#34363e"/>
    <rect x="600" y="700" width="130" height="100" fill="#2f392f"/>
    <rect x="600" y="800" width="130" height="120" fill="#34363e"/>
    <rect x="820" y="730" width="120" height="70" fill="#2f392f"/>
    <rect x="820" y="800" width="120" height="100" fill="#34363e"/>
    <rect x="1020" y="695" width="140" height="105" fill="#2f392f"/>
    <rect x="1020" y="800" width="140" height="115" fill="#34363e"/>
    <rect x="1240" y="740" width="110" height="60" fill="#2f392f"/>
    <rect x="1240" y="800" width="110" height="90" fill="#34363e"/>
  </g>

  <g transform="translate(980 445)">
    <rect x="140" y="120" width="180" height="205" fill="#262c48"/>
    <rect x="85" y="180" width="78" height="145" fill="#262c48"/>
    <rect x="297" y="175" width="82" height="150" fill="#262c48"/>
    <rect x="200" y="72" width="60" height="80" fill="#262c48"/>
    <rect x="223" y="8" width="14" height="64" fill="#74deff"/>
    <rect x="175" y="235" width="18" height="22" fill="#74deff"/>
    <rect x="210" y="235" width="18" height="22" fill="#d492ff"/>
    <rect x="245" y="235" width="18" height="22" fill="#74deff"/>
    <rect x="106" y="220" width="18" height="22" fill="#74deff"/>
    <rect x="328" y="220" width="18" height="22" fill="#d492ff"/>
  </g>

  <g>
    <rect x="320" y="690" width="18" height="70" fill="#241c21"/>
    <rect x="292" y="655" width="74" height="42" fill="#1e3227"/>
    <rect x="1160" y="700" width="18" height="60" fill="#241c21"/>
    <rect x="1132" y="665" width="74" height="42" fill="#1e3227"/>
  </g>

  <ellipse cx="1130" cy="700" rx="230" ry="46" fill="#75e0ff" opacity=".12" filter="url(#blur)"/>
  <ellipse cx="780" cy="620" rx="240" ry="52" fill="#c98cff" opacity=".10" filter="url(#blur)"/>
</svg>
